<svg width="618" height="152" viewBox="0 0 618 152" fill="none" xmlns="http://www.w3.org/2000/svg">
<path d="M20.016 0.799999H21.184V12H20.016V0.799999ZM13.008 12H11.824V0.799999H13.008V12ZM20.128 6.832H12.88V5.792H20.128V6.832ZM24.5996 12V3.6H25.7356V12H24.5996ZM25.1756 1.744C24.941 1.744 24.7436 1.664 24.5836 1.504C24.4236 1.344 24.3436 1.152 24.3436 0.927999C24.3436 0.703999 24.4236 0.517332 24.5836 0.367999C24.7436 0.207999 24.941 0.127999 25.1756 0.127999C25.4103 0.127999 25.6076 0.202666 25.7676 0.351999C25.9276 0.501333 26.0076 0.687999 26.0076 0.912C26.0076 1.14667 25.9276 1.344 25.7676 1.504C25.6183 1.664 25.421 1.744 25.1756 1.744ZM33.084 12V3.6H34.22V12H33.084ZM33.66 1.744C33.4253 1.744 33.228 1.664 33.068 1.504C32.908 1.344 32.828 1.152 32.828 0.927999C32.828 0.703999 32.908 0.517332 33.068 0.367999C33.228 0.207999 33.4253 0.127999 33.66 0.127999C33.8947 0.127999 34.092 0.202666 34.252 0.351999C34.412 0.501333 34.492 0.687999 34.492 0.912C34.492 1.14667 34.412 1.344 34.252 1.504C34.1027 1.664 33.9053 1.744 33.66 1.744ZM42.6449 12V10.144L42.5969 9.84V6.736C42.5969 6.02133 42.3942 5.472 41.9889 5.088C41.5942 4.704 41.0022 4.512 40.2129 4.512C39.6689 4.512 39.1515 4.60267 38.6609 4.784C38.1702 4.96533 37.7542 5.20533 37.4129 5.504L36.9009 4.656C37.3275 4.29333 37.8395 4.016 38.4369 3.824C39.0342 3.62133 39.6635 3.52 40.3249 3.52C41.4129 3.52 42.2502 3.792 42.8369 4.336C43.4342 4.86933 43.7329 5.68533 43.7329 6.784V12H42.6449ZM39.7489 12.08C39.1195 12.08 38.5702 11.9787 38.1009 11.776C37.6422 11.5627 37.2902 11.2747 37.0449 10.912C36.7995 10.5387 36.6769 10.112 36.6769 9.632C36.6769 9.19467 36.7782 8.8 36.9809 8.448C37.1942 8.08533 37.5355 7.79733 38.0049 7.584C38.4849 7.36 39.1249 7.248 39.9249 7.248H42.8209V8.096H39.9569C39.1462 8.096 38.5809 8.24 38.2609 8.528C37.9515 8.816 37.7969 9.17333 37.7969 9.6C37.7969 10.08 37.9835 10.464 38.3569 10.752C38.7302 11.04 39.2529 11.184 39.9249 11.184C40.5649 11.184 41.1142 11.04 41.5729 10.752C42.0422 10.4533 42.3835 10.0267 42.5969 9.472L42.8529 10.256C42.6395 10.8107 42.2662 11.2533 41.7329 11.584C41.2102 11.9147 40.5489 12.08 39.7489 12.08ZM57.3144 3.52C57.997 3.52 58.589 3.65333 59.0904 3.92C59.6024 4.176 59.997 4.57067 60.2744 5.104C60.5624 5.63733 60.7064 6.30933 60.7064 7.12V12H59.5704V7.232C59.5704 6.34667 59.357 5.68 58.9304 5.232C58.5144 4.77333 57.9224 4.544 57.1544 4.544C56.5784 4.544 56.077 4.66667 55.6504 4.912C55.2344 5.14667 54.909 5.49333 54.6744 5.952C54.4504 6.4 54.3384 6.944 54.3384 7.584V12H53.2024V7.232C53.2024 6.34667 52.989 5.68 52.5624 5.232C52.1357 4.77333 51.5384 4.544 50.7704 4.544C50.205 4.544 49.709 4.66667 49.2824 4.912C48.8557 5.14667 48.525 5.49333 48.2904 5.952C48.0664 6.4 47.9544 6.944 47.9544 7.584V12H46.8184V3.6H47.9064V5.872L47.7304 5.472C47.9864 4.864 48.397 4.38933 48.9624 4.048C49.5384 3.696 50.2157 3.52 50.9944 3.52C51.8157 3.52 52.5144 3.728 53.0904 4.144C53.6664 4.54933 54.0397 5.16267 54.2104 5.984L53.7624 5.808C54.0077 5.12533 54.4397 4.576 55.0584 4.16C55.6877 3.73333 56.4397 3.52 57.3144 3.52Z" fill="white"/>
<g filter="url(#filter0_d_27_14)">
<path d="M10.624 120V30.4H27.776L65.92 93.632H56.832L94.336 30.4H111.36L111.616 120H92.16L92.032 60.224H95.616L65.664 110.528H56.32L25.728 60.224H30.08V120H10.624ZM121.098 120L161.034 30.4H181.514L221.578 120H199.818L167.05 40.896H175.242L142.346 120H121.098ZM141.066 100.8L146.57 85.056H192.65L198.282 100.8H141.066ZM230.874 120V30.4H269.658C277.679 30.4 284.591 31.7227 290.394 34.368C296.197 36.928 300.677 40.64 303.834 45.504C306.991 50.368 308.57 56.1707 308.57 62.912C308.57 69.568 306.991 75.328 303.834 80.192C300.677 84.9707 296.197 88.64 290.394 91.2C284.591 93.76 277.679 95.04 269.658 95.04H242.394L251.61 85.952V120H230.874ZM287.834 120L265.434 87.488H287.578L310.234 120H287.834ZM251.61 88.256L242.394 78.528H268.506C274.906 78.528 279.685 77.1627 282.842 74.432C285.999 71.616 287.578 67.776 287.578 62.912C287.578 57.9627 285.999 54.1227 282.842 51.392C279.685 48.6613 274.906 47.296 268.506 47.296H242.394L251.61 37.44V88.256ZM368.519 121.536C361.436 121.536 354.866 120.384 348.807 118.08C342.834 115.776 337.628 112.533 333.191 108.352C328.839 104.171 325.426 99.264 322.951 93.632C320.562 88 319.367 81.856 319.367 75.2C319.367 68.544 320.562 62.4 322.951 56.768C325.426 51.136 328.882 46.2293 333.319 42.048C337.756 37.8667 342.962 34.624 348.935 32.32C354.908 30.016 361.394 28.864 368.391 28.864C375.474 28.864 381.959 30.016 387.847 32.32C393.82 34.624 398.983 37.8667 403.335 42.048C407.772 46.2293 411.228 51.136 413.703 56.768C416.178 62.3147 417.415 68.4587 417.415 75.2C417.415 81.856 416.178 88.0427 413.703 93.76C411.228 99.392 407.772 104.299 403.335 108.48C398.983 112.576 393.82 115.776 387.847 118.08C381.959 120.384 375.516 121.536 368.519 121.536ZM368.391 103.872C372.402 103.872 376.071 103.189 379.399 101.824C382.812 100.459 385.799 98.496 388.359 95.936C390.919 93.376 392.882 90.3467 394.247 86.848C395.698 83.3493 396.423 79.4667 396.423 75.2C396.423 70.9333 395.698 67.0507 394.247 63.552C392.882 60.0533 390.919 57.024 388.359 54.464C385.884 51.904 382.94 49.9413 379.527 48.576C376.114 47.2107 372.402 46.528 368.391 46.528C364.38 46.528 360.668 47.2107 357.255 48.576C353.927 49.9413 350.983 51.904 348.423 54.464C345.863 57.024 343.858 60.0533 342.407 63.552C341.042 67.0507 340.359 70.9333 340.359 75.2C340.359 79.3813 341.042 83.264 342.407 86.848C343.858 90.3467 345.82 93.376 348.295 95.936C350.855 98.496 353.842 100.459 357.255 101.824C360.668 103.189 364.38 103.872 368.391 103.872ZM432.999 120V30.4H450.151L503.015 94.912H494.695V30.4H515.175V120H498.151L445.159 55.488H453.479V120H432.999ZM555.446 66.496H598.582V82.624H555.446V66.496ZM556.982 103.36H605.75V120H536.374V30.4H604.086V47.04H556.982V103.36Z" fill="white"/>
</g>
<path d="M445.239 142.224H451.159V143.248H445.239V142.224ZM445.367 148H444.183V136.8H451.863V137.824H445.367V148ZM453.912 148V139.6H455V141.888L454.888 141.488C455.123 140.848 455.517 140.363 456.072 140.032C456.627 139.691 457.315 139.52 458.136 139.52V140.624C458.093 140.624 458.051 140.624 458.008 140.624C457.965 140.613 457.923 140.608 457.88 140.608C456.995 140.608 456.301 140.88 455.8 141.424C455.299 141.957 455.048 142.72 455.048 143.712V148H453.912ZM463.555 148.08C462.744 148.08 462.014 147.899 461.363 147.536C460.723 147.163 460.216 146.656 459.843 146.016C459.47 145.365 459.283 144.624 459.283 143.792C459.283 142.949 459.47 142.208 459.843 141.568C460.216 140.928 460.723 140.427 461.363 140.064C462.003 139.701 462.734 139.52 463.555 139.52C464.387 139.52 465.123 139.701 465.763 140.064C466.414 140.427 466.92 140.928 467.283 141.568C467.656 142.208 467.843 142.949 467.843 143.792C467.843 144.624 467.656 145.365 467.283 146.016C466.92 146.656 466.414 147.163 465.763 147.536C465.112 147.899 464.376 148.08 463.555 148.08ZM463.555 147.072C464.163 147.072 464.702 146.939 465.171 146.672C465.64 146.395 466.008 146.011 466.275 145.52C466.552 145.019 466.691 144.443 466.691 143.792C466.691 143.131 466.552 142.555 466.275 142.064C466.008 141.573 465.64 141.195 465.171 140.928C464.702 140.651 464.168 140.512 463.571 140.512C462.974 140.512 462.44 140.651 461.971 140.928C461.502 141.195 461.128 141.573 460.851 142.064C460.574 142.555 460.435 143.131 460.435 143.792C460.435 144.443 460.574 145.019 460.851 145.52C461.128 146.011 461.502 146.395 461.971 146.672C462.44 146.939 462.968 147.072 463.555 147.072ZM474.45 139.52C475.133 139.52 475.73 139.653 476.242 139.92C476.765 140.176 477.17 140.571 477.458 141.104C477.757 141.637 477.906 142.309 477.906 143.12V148H476.77V143.232C476.77 142.347 476.546 141.68 476.098 141.232C475.661 140.773 475.042 140.544 474.242 140.544C473.645 140.544 473.122 140.667 472.674 140.912C472.237 141.147 471.895 141.493 471.65 141.952C471.415 142.4 471.298 142.944 471.298 143.584V148H470.162V139.6H471.25V141.904L471.074 141.472C471.341 140.864 471.767 140.389 472.354 140.048C472.941 139.696 473.639 139.52 474.45 139.52ZM483.631 148.08C482.841 148.08 482.233 147.867 481.807 147.44C481.38 147.013 481.167 146.411 481.167 145.632V137.744H482.303V145.568C482.303 146.059 482.425 146.437 482.671 146.704C482.927 146.971 483.289 147.104 483.759 147.104C484.26 147.104 484.676 146.96 485.007 146.672L485.407 147.488C485.183 147.691 484.911 147.84 484.591 147.936C484.281 148.032 483.961 148.08 483.631 148.08ZM479.663 140.544V139.6H484.863V140.544H479.663ZM486.694 144.16V143.168H490.886V144.16H486.694ZM497.152 148.08C496.277 148.08 495.509 147.899 494.848 147.536C494.187 147.163 493.669 146.656 493.296 146.016C492.923 145.365 492.736 144.624 492.736 143.792C492.736 142.96 492.912 142.224 493.264 141.584C493.627 140.944 494.117 140.443 494.736 140.08C495.365 139.707 496.069 139.52 496.848 139.52C497.637 139.52 498.336 139.701 498.944 140.064C499.563 140.416 500.048 140.917 500.4 141.568C500.752 142.208 500.928 142.949 500.928 143.792C500.928 143.845 500.923 143.904 500.912 143.968C500.912 144.021 500.912 144.08 500.912 144.144H493.6V143.296H500.304L499.856 143.632C499.856 143.024 499.723 142.485 499.456 142.016C499.2 141.536 498.848 141.163 498.4 140.896C497.952 140.629 497.435 140.496 496.848 140.496C496.272 140.496 495.755 140.629 495.296 140.896C494.837 141.163 494.48 141.536 494.224 142.016C493.968 142.496 493.84 143.045 493.84 143.664V143.84C493.84 144.48 493.979 145.045 494.256 145.536C494.544 146.016 494.939 146.395 495.44 146.672C495.952 146.939 496.533 147.072 497.184 147.072C497.696 147.072 498.171 146.981 498.608 146.8C499.056 146.619 499.44 146.341 499.76 145.968L500.4 146.704C500.027 147.152 499.557 147.493 498.992 147.728C498.437 147.963 497.824 148.08 497.152 148.08ZM507.528 139.52C508.211 139.52 508.808 139.653 509.32 139.92C509.843 140.176 510.248 140.571 510.536 141.104C510.835 141.637 510.984 142.309 510.984 143.12V148H509.848V143.232C509.848 142.347 509.624 141.68 509.176 141.232C508.739 140.773 508.12 140.544 507.32 140.544C506.723 140.544 506.2 140.667 505.752 140.912C505.315 141.147 504.974 141.493 504.728 141.952C504.494 142.4 504.376 142.944 504.376 143.584V148H503.24V139.6H504.328V141.904L504.152 141.472C504.419 140.864 504.846 140.389 505.432 140.048C506.019 139.696 506.718 139.52 507.528 139.52ZM517.397 148.08C516.597 148.08 515.877 147.899 515.237 147.536C514.607 147.173 514.111 146.672 513.749 146.032C513.386 145.381 513.205 144.635 513.205 143.792C513.205 142.939 513.386 142.192 513.749 141.552C514.111 140.912 514.607 140.416 515.237 140.064C515.877 139.701 516.597 139.52 517.397 139.52C518.133 139.52 518.789 139.685 519.365 140.016C519.951 140.347 520.415 140.832 520.757 141.472C521.109 142.101 521.285 142.875 521.285 143.792C521.285 144.699 521.114 145.472 520.773 146.112C520.431 146.752 519.967 147.243 519.381 147.584C518.805 147.915 518.143 148.08 517.397 148.08ZM517.477 147.072C518.074 147.072 518.607 146.939 519.077 146.672C519.557 146.395 519.93 146.011 520.197 145.52C520.474 145.019 520.613 144.443 520.613 143.792C520.613 143.131 520.474 142.555 520.197 142.064C519.93 141.573 519.557 141.195 519.077 140.928C518.607 140.651 518.074 140.512 517.477 140.512C516.89 140.512 516.362 140.651 515.893 140.928C515.423 141.195 515.05 141.573 514.773 142.064C514.495 142.555 514.357 143.131 514.357 143.792C514.357 144.443 514.495 145.019 514.773 145.52C515.05 146.011 515.423 146.395 515.893 146.672C516.362 146.939 516.89 147.072 517.477 147.072ZM520.645 148V145.472L520.757 143.776L520.597 142.08V136.128H521.733V148H520.645ZM534.348 148V146.144L534.3 145.84V142.736C534.3 142.021 534.097 141.472 533.692 141.088C533.297 140.704 532.705 140.512 531.916 140.512C531.372 140.512 530.855 140.603 530.364 140.784C529.873 140.965 529.457 141.205 529.116 141.504L528.604 140.656C529.031 140.293 529.543 140.016 530.14 139.824C530.737 139.621 531.367 139.52 532.028 139.52C533.116 139.52 533.953 139.792 534.54 140.336C535.137 140.869 535.436 141.685 535.436 142.784V148H534.348ZM531.452 148.08C530.823 148.08 530.273 147.979 529.804 147.776C529.345 147.563 528.993 147.275 528.748 146.912C528.503 146.539 528.38 146.112 528.38 145.632C528.38 145.195 528.481 144.8 528.684 144.448C528.897 144.085 529.239 143.797 529.708 143.584C530.188 143.36 530.828 143.248 531.628 143.248H534.524V144.096H531.66C530.849 144.096 530.284 144.24 529.964 144.528C529.655 144.816 529.5 145.173 529.5 145.6C529.5 146.08 529.687 146.464 530.06 146.752C530.433 147.04 530.956 147.184 531.628 147.184C532.268 147.184 532.817 147.04 533.276 146.752C533.745 146.453 534.087 146.027 534.3 145.472L534.556 146.256C534.343 146.811 533.969 147.253 533.436 147.584C532.913 147.915 532.252 148.08 531.452 148.08ZM542.81 139.52C543.492 139.52 544.09 139.653 544.602 139.92C545.124 140.176 545.53 140.571 545.818 141.104C546.116 141.637 546.266 142.309 546.266 143.12V148H545.13V143.232C545.13 142.347 544.906 141.68 544.458 141.232C544.02 140.773 543.402 140.544 542.602 140.544C542.004 140.544 541.482 140.667 541.034 140.912C540.596 141.147 540.255 141.493 540.01 141.952C539.775 142.4 539.658 142.944 539.658 143.584V148H538.522V139.6H539.61V141.904L539.434 141.472C539.7 140.864 540.127 140.389 540.714 140.048C541.3 139.696 541.999 139.52 542.81 139.52ZM552.678 148.08C551.878 148.08 551.158 147.899 550.518 147.536C549.889 147.173 549.393 146.672 549.03 146.032C548.667 145.381 548.486 144.635 548.486 143.792C548.486 142.939 548.667 142.192 549.03 141.552C549.393 140.912 549.889 140.416 550.518 140.064C551.158 139.701 551.878 139.52 552.678 139.52C553.414 139.52 554.07 139.685 554.646 140.016C555.233 140.347 555.697 140.832 556.038 141.472C556.39 142.101 556.566 142.875 556.566 143.792C556.566 144.699 556.395 145.472 556.054 146.112C555.713 146.752 555.249 147.243 554.662 147.584C554.086 147.915 553.425 148.08 552.678 148.08ZM552.758 147.072C553.355 147.072 553.889 146.939 554.358 146.672C554.838 146.395 555.211 146.011 555.478 145.52C555.755 145.019 555.894 144.443 555.894 143.792C555.894 143.131 555.755 142.555 555.478 142.064C555.211 141.573 554.838 141.195 554.358 140.928C553.889 140.651 553.355 140.512 552.758 140.512C552.171 140.512 551.643 140.651 551.174 140.928C550.705 141.195 550.331 141.573 550.054 142.064C549.777 142.555 549.638 143.131 549.638 143.792C549.638 144.443 549.777 145.019 550.054 145.52C550.331 146.011 550.705 146.395 551.174 146.672C551.643 146.939 552.171 147.072 552.758 147.072ZM555.926 148V145.472L556.038 143.776L555.878 142.08V136.128H557.014V148H555.926ZM569.117 148.096C567.688 148.096 566.563 147.685 565.741 146.864C564.92 146.043 564.509 144.827 564.509 143.216V136.8H565.693V143.168C565.693 144.491 565.992 145.467 566.589 146.096C567.187 146.725 568.029 147.04 569.117 147.04C570.216 147.04 571.064 146.725 571.661 146.096C572.259 145.467 572.557 144.491 572.557 143.168V136.8H573.709V143.216C573.709 144.827 573.299 146.043 572.477 146.864C571.667 147.685 570.547 148.096 569.117 148.096ZM577.277 148V136.8H578.461V148H577.277ZM582.105 151.104V136.128H583.161V151.104H582.105ZM591.32 148.096C589.891 148.096 588.766 147.685 587.944 146.864C587.123 146.043 586.712 144.827 586.712 143.216V136.8H587.896V143.168C587.896 144.491 588.195 145.467 588.792 146.096C589.39 146.725 590.232 147.04 591.32 147.04C592.419 147.04 593.267 146.725 593.864 146.096C594.462 145.467 594.76 144.491 594.76 143.168V136.8H595.912V143.216C595.912 144.827 595.502 146.043 594.68 146.864C593.87 147.685 592.75 148.096 591.32 148.096ZM597.772 148L602.364 141.792V142.704L598.044 136.8H599.404L603.036 141.728L602.508 141.744L606.14 136.8H607.42L603.148 142.624V141.792L607.724 148H606.348L602.476 142.736H602.972L599.132 148H597.772Z" fill="white"/>
<defs>
<filter id="filter0_d_27_14" x="-4.37598" y="13.864" width="625.126" height="122.672" filterUnits="userSpaceOnUse" color-interpolation-filters="sRGB">
<feFlood flood-opacity="0" result="BackgroundImageFix"/>
<feColorMatrix in="SourceAlpha" type="matrix" values="0 0 0 0 0 0 0 0 0 0 0 0 0 0 0 0 0 0 127 0" result="hardAlpha"/>
<feOffset/>
<feGaussianBlur stdDeviation="7.5"/>
<feComposite in2="hardAlpha" operator="out"/>
<feColorMatrix type="matrix" values="0 0 0 0 0.964706 0 0 0 0 0.945098 0 0 0 0 0.835294 0 0 0 0.3 0"/>
<feBlend mode="normal" in2="BackgroundImageFix" result="effect1_dropShadow_27_14"/>
<feBlend mode="normal" in="SourceGraphic" in2="effect1_dropShadow_27_14" result="shape"/>
</filter>
</defs>
</svg>
